<?xml version="1.0" encoding="UTF-8" standalone="no"?>
<svg
   xmlns:dc="http://purl.org/dc/elements/1.1/"
   xmlns:cc="http://creativecommons.org/ns#"
   xmlns:rdf="http://www.w3.org/1999/02/22-rdf-syntax-ns#"
   xmlns:svg="http://www.w3.org/2000/svg"
   xmlns="http://www.w3.org/2000/svg"
   xmlns:sodipodi="http://sodipodi.sourceforge.net/DTD/sodipodi-0.dtd"
   xmlns:inkscape="http://www.inkscape.org/namespaces/inkscape"
   width="600px"
   height="600px"
   viewBox="0 0 600 600"
   version="1.1"
   id="SVGRoot"
   sodipodi:docname="그리기.svg"
   inkscape:version="1.0.1 (3bc2e813f5, 2020-09-07)">
  <defs
     id="defs18" />
  <sodipodi:namedview
     id="base"
     pagecolor="#ffffff"
     bordercolor="#666666"
     borderopacity="1.0"
     inkscape:pageopacity="0.0"
     inkscape:pageshadow="2"
     inkscape:zoom="0.98994949"
     inkscape:cx="167.67283"
     inkscape:cy="428.20553"
     inkscape:document-units="px"
     inkscape:current-layer="layer1"
     inkscape:document-rotation="0"
     showgrid="false"
     inkscape:window-width="1642"
     inkscape:window-height="1013"
     inkscape:window-x="-116"
     inkscape:window-y="482"
     inkscape:window-maximized="0" />
  <metadata
     id="metadata21">
    <rdf:RDF>
      <cc:Work
         rdf:about="">
        <dc:format>image/svg+xml</dc:format>
        <dc:type
           rdf:resource="http://purl.org/dc/dcmitype/StillImage" />
        <dc:title />
      </cc:Work>
    </rdf:RDF>
  </metadata>
  <g
     inkscape:label="레이어 1"
     inkscape:groupmode="layer"
     id="layer1">
    <g
       id="g109">
      <path
         style="fill:#ff6600;stroke-width:0.999997"
         d="M 70,180 A 15,15 0 0 1 55,195 15,15 0 0 1 40,180 15,15 0 0 1 55,165 15,15 0 0 1 70,180 Z"
         id="path46" />
      <path
         style="fill:#ff6600;stroke-width:0.999997"
         d="m 55,165 h 100 v 30 H 55 Z"
         id="path44" />
      <path
         style="fill:#ff6600;stroke-width:0.999997"
         d="m 140,165 h 30 v 200 h -30 z"
         id="path42" />
      <path
         style="fill:#ff6600;stroke-width:0.999997"
         d="m 40,362 a 65,65 0 0 0 32.5,56.29102 65,65 0 0 0 65,0 A 65,65 0 0 0 170,362 H 139.76953 A 35,35 0 0 1 122.5,388.31055 a 35,35 0 0 1 -35,0 A 35,35 0 0 1 70.230469,362 Z"
         id="path40" />
      <path
         style="fill:#ff6600;stroke-width:0.999997"
         d="m 40,365 a 15,15 0 0 1 15,-15 15,15 0 0 1 15,15 H 55 Z"
         id="path92" />
    </g>
    <g
       id="g119">
      <rect
         style="fill:#ff6600"
         id="rect94"
         width="100"
         height="30"
         x="168"
         y="165" />
      <path
         id="path99"
         style="fill:#ff6600"
         d="m 265,165 v 30 a 50,50 0 0 1 50,50 50,50 0 0 1 -50,50 v 30 a 80,80 0 0 0 80,-80 80,80 0 0 0 -80,-80 z" />
      <rect
         style="fill:#ff6600"
         id="rect106"
         width="100"
         height="30"
         x="168"
         y="295" />
      <rect
         style="fill:#ff6600;stroke-width:0.885022"
         id="rect112"
         width="137.07108"
         height="30"
         x="-490.92599"
         y="-101.26701"
         transform="rotate(-135)" />
    </g>
    <rect
       style="fill:#ff6600;stroke-width:1.10818"
       id="rect114"
       width="200"
       height="30"
       x="296"
       y="397.53049" />
    <path
       style="fill:#ff6600"
       id="path116"
       sodipodi:type="arc"
       sodipodi:cx="296.7132"
       sodipodi:cy="397"
       sodipodi:rx="30"
       sodipodi:ry="30"
       sodipodi:start="1.5707963"
       sodipodi:end="2.3561945"
       sodipodi:arc-type="slice"
       d="m 296.7132,427 a 30,30 0 0 1 -21.21321,-8.7868 L 296.7132,397 Z" />
    <path
       id="path118"
       style="fill:#ff6600;stroke-width:1.00002"
       d="M 491,277.52744 V 307.5282 A 45.000256,45.001144 0 0 1 536.00026,352.52934 45.000256,45.001144 0 0 1 491,397.53049 v 30.00076 A 75.000427,75.001907 0 0 0 566.00043,352.52934 75.000427,75.001907 0 0 0 491,277.52744 Z" />
    <path
       id="path125"
       style="fill:#ff6600;stroke-width:1.17156"
       d="m 458.60894,167.52744 a 70,70 0 0 0 -60.48632,35 70,70 0 0 0 0,70 70,70 0 0 0 60.62109,35 v -30 a 40,40 0 0 1 -34.64062,-20 40,40 0 0 1 0,-40 40,40 0 0 1 34.64062,-20 v -30 a 70,70 0 0 0 -0.13477,0 z" />
    <rect
       style="fill:#ff6600;stroke-width:0.992718"
       id="rect132"
       width="40"
       height="30"
       x="454.74371"
       y="277.52744" />
    <rect
       style="fill:#ff6600;stroke-width:0.786581"
       id="rect29"
       width="75"
       height="30"
       x="455"
       y="167.52744" />
    <path
       style="fill:#ff6600"
       id="path31"
       sodipodi:type="arc"
       sodipodi:cx="527"
       sodipodi:cy="182.52744"
       sodipodi:rx="15"
       sodipodi:ry="15"
       sodipodi:start="4.712389"
       sodipodi:end="1.5707963"
       sodipodi:arc-type="slice"
       d="m 527,167.52744 a 15,15 0 0 1 15,15 15,15 0 0 1 -15,15 v -15 z" />
  </g>
</svg>
